<?xml version="1.0" ?><svg enable-background="new 0 0 128 128" id="Слой_1" version="1.1" viewBox="0 0 128 128" xml:space="preserve" xmlns="http://www.w3.org/2000/svg" xmlns:xlink="http://www.w3.org/1999/xlink"><g><g><path d="M63.9111328,72.0356445c-10.265625,0-18.6171875-8.3520508-18.6171875-18.6176758    S53.6455078,34.800293,63.9111328,34.800293s18.6181641,8.3520508,18.6181641,18.6176758    S74.1767578,72.0356445,63.9111328,72.0356445z M63.9111328,38.800293c-8.0595703,0-14.6171875,6.5576172-14.6171875,14.6176758    s6.5576172,14.6176758,14.6171875,14.6176758c8.0605469,0,14.6181641-6.5576172,14.6181641-14.6176758    S71.9716797,38.800293,63.9111328,38.800293z" fill="#3399CC"/></g><g><path d="M32.7001953,94.1855469c-1.1044922,0-2-0.8955078-2-2    c0-13.1992188,14.8271484-23.9379883,33.0517578-23.9379883c8.4101562,0,16.4160156,2.2724609,22.5419922,6.3989258    c0.9160156,0.6171875,1.1582031,1.8598633,0.5419922,2.7758789c-0.6171875,0.9160156-1.8583984,1.1601562-2.7763672,0.5415039    C78.5869141,74.277832,71.375,72.2475586,63.7519531,72.2475586c-16.0195312,0-29.0517578,8.9443359-29.0517578,19.9379883    C34.7001953,93.2900391,33.8046875,94.1855469,32.7001953,94.1855469z" fill="#3399CC"/></g><g><path d="M89.1298828,81.3896484c-0.5205078,0-1.0400391-0.2197266-1.4101562-0.5898438    s-0.5898438-0.8901367-0.5898438-1.4101562c0-0.5297852,0.2197266-1.0400391,0.5898438-1.4199219    c0.7304688-0.7397461,2.0898438-0.7397461,2.8300781,0c0.3701172,0.3798828,0.5800781,0.8901367,0.5800781,1.4199219    c0,0.5200195-0.2099609,1.0400391-0.5800781,1.4101562C90.1699219,81.1699219,89.6601562,81.3896484,89.1298828,81.3896484z" fill="#3399CC"/></g><g><path d="M91.8398438,85c-0.5302734,0-1.0400391-0.2202148-1.4101562-0.590332    C90.0498047,84.0400391,89.8398438,83.5200195,89.8398438,83c0-0.5302734,0.2099609-1.0400391,0.5898438-1.4204102    c0.7402344-0.7397461,2.0800781-0.7397461,2.8203125,0C93.6298828,81.9599609,93.8398438,82.4697266,93.8398438,83    c0,0.5200195-0.2099609,1.0400391-0.5898438,1.409668C92.8798828,84.7797852,92.359375,85,91.8398438,85z" fill="#3399CC"/></g><g><path d="M94.5498047,94.0200195c-0.5302734,0-1.0498047-0.2099609-1.4199219-0.590332    c-0.3701172-0.3696289-0.5800781-0.8896484-0.5800781-1.409668c0-0.5302734,0.2099609-1.0400391,0.5800781-1.4204102    c0.75-0.7397461,2.0800781-0.7397461,2.8300781,0c0.3701172,0.3803711,0.5898438,0.8901367,0.5898438,1.4204102    c0,0.5200195-0.2197266,1.0400391-0.5898438,1.409668C95.5898438,93.8100586,95.0693359,94.0200195,94.5498047,94.0200195z" fill="#3399CC"/></g><g><path d="M93.6396484,89.5097656c-0.5195312,0-1.0400391-0.2197266-1.4101562-0.5898438    s-0.5898438-0.8901367-0.5898438-1.4101562c0-0.5297852,0.2197266-1.0498047,0.5898438-1.4199219    c0.75-0.7402344,2.0800781-0.7402344,2.8300781,0c0.3701172,0.3798828,0.5800781,0.8901367,0.5800781,1.4199219    c0,0.5200195-0.2099609,1.0400391-0.5800781,1.4101562C94.6796875,89.2900391,94.1699219,89.5097656,93.6396484,89.5097656z" fill="#3399CC"/></g></g></svg>