<?xml version="1.0" encoding="UTF-8"?>
<!DOCTYPE svg PUBLIC "-//W3C//DTD SVG 1.1//EN" "http://www.w3.org/Graphics/SVG/1.1/DTD/svg11.dtd">
<!-- Creator: CorelDRAW 2019 -->
<svg xmlns="http://www.w3.org/2000/svg" xml:space="preserve" width="448px" height="134px" version="1.1" style="shape-rendering:geometricPrecision; text-rendering:geometricPrecision; image-rendering:optimizeQuality; fill-rule:evenodd; clip-rule:evenodd"
viewBox="0 0 448 133.88"
 xmlns:xlink="http://www.w3.org/1999/xlink">
 <defs>
  <style type="text/css">
   <![CDATA[
    .fil4 {fill:none;fill-rule:nonzero}
    .fil1 {fill:#FEFEFE;fill-rule:nonzero}
    .fil0 {fill:#064D7C;fill-rule:nonzero}
    .fil3 {fill:#201E1E;fill-rule:nonzero;fill-opacity:0.149020}
    .fil2 {fill:url(#id1);fill-rule:nonzero}
   ]]>
  </style>
   <clipPath id="id0" style="clip-rule:nonzero">
    <path d="M133.88 118.35c0,8.58 -6.96,15.53 -15.54,15.53l-102.81 0c-8.58,0 -15.53,-6.95 -15.53,-15.53l0 -102.81c0,-8.59 6.95,-15.54 15.53,-15.54l102.81 0c8.58,0 15.54,6.95 15.54,15.54l0 102.81z"/>
   </clipPath>
  <linearGradient id="id1" gradientUnits="userSpaceOnUse" x1="33.14" y1="208.51" x2="33.14" y2="-74.98">
   <stop offset="0" style="stop-opacity:1; stop-color:#862A2A"/>
   <stop offset="0.529412" style="stop-opacity:1; stop-color:#B92E30"/>
   <stop offset="1" style="stop-opacity:1; stop-color:#ED3237"/>
  </linearGradient>
 </defs>
 <g id="Camada_x0020_1">
  <metadata id="CorelCorpID_0Corel-Layer"/>
  <path class="fil0" d="M193.02 104.88c-7.64,0 -14.5,-1.61 -20.59,-4.84 -6.08,-3.23 -10.85,-7.73 -14.33,-13.5 -3.47,-5.77 -5.21,-12.3 -5.21,-19.6 0,-7.3 1.74,-13.83 5.21,-19.6 3.48,-5.77 8.25,-10.27 14.33,-13.5 6.09,-3.23 12.95,-4.85 20.59,-4.85 6.67,0 12.69,1.19 18.04,3.55 5.35,2.36 9.79,5.77 13.34,10.22l-13.14 11.88c-4.72,-5.7 -10.45,-8.55 -17.2,-8.55 -3.96,0 -7.48,0.87 -10.58,2.61 -3.09,1.73 -5.49,4.18 -7.19,7.35 -1.7,3.16 -2.55,6.79 -2.55,10.89 0,4.1 0.85,7.73 2.55,10.89 1.7,3.17 4.1,5.61 7.19,7.35 3.1,1.74 6.62,2.61 10.58,2.61 6.75,0 12.48,-2.85 17.2,-8.55l13.14 11.88c-3.55,4.45 -7.99,7.86 -13.34,10.22 -5.35,2.36 -11.37,3.54 -18.04,3.54zm99.14 -17.4l0 15.94 -58.59 0 0 -72.97 57.23 0 0 15.95 -36.8 0 0 12.3 32.42 0 0 15.43 -32.42 0 0 13.35 38.16 0zm43.36 -3.44l-11.26 0 0 19.38 -20.64 0 0 -72.97 33.36 0c6.6,0 12.34,1.1 17.2,3.29 4.86,2.19 8.62,5.31 11.26,9.38 2.64,4.07 3.96,8.84 3.96,14.33 0,5.29 -1.23,9.89 -3.7,13.82 -2.47,3.92 -5.99,7 -10.58,9.22l15.74 22.93 -22.1 0 -13.24 -19.38zm13.03 -26.59c0,-3.4 -1.08,-6.04 -3.23,-7.92 -2.15,-1.88 -5.35,-2.81 -9.59,-2.81l-11.47 0 0 21.37 11.47 0c4.24,0 7.44,-0.92 9.59,-2.77 2.15,-1.84 3.23,-4.46 3.23,-7.87zm64.11 26.59l-11.26 0 0 19.38 -20.64 0 0 -72.97 33.36 0c6.6,0 12.34,1.1 17.2,3.29 4.87,2.19 8.62,5.31 11.26,9.38 2.64,4.07 3.96,8.84 3.96,14.33 0,5.29 -1.23,9.89 -3.7,13.82 -2.47,3.92 -5.99,7 -10.58,9.22l15.74 22.93 -22.1 0 -13.24 -19.38zm13.03 -26.59c0,-3.4 -1.08,-6.04 -3.23,-7.92 -2.15,-1.88 -5.35,-2.81 -9.59,-2.81l-11.47 0 0 21.37 11.47 0c4.24,0 7.44,-0.92 9.59,-2.77 2.15,-1.84 3.23,-4.46 3.23,-7.87z"/>
  <path class="fil1" d="M133.88 118.35c0,8.58 -6.96,15.53 -15.54,15.53l-102.81 0c-8.58,0 -15.53,-6.95 -15.53,-15.53l0 -102.81c0,-8.59 6.95,-15.54 15.53,-15.54l102.81 0c8.58,0 15.54,6.95 15.54,15.54l0 102.81z"/>
  <g style="clip-path:url(#id0)">
   <g id="_168021120">
    <path id="1" class="fil2" d="M8.15 70.82c0,-31.79 23.85,-59.4 58.89,-73.38l-51.72 0c-8.89,0 -16.09,7.2 -16.09,16.09l0 106.47c0,8.88 7.2,16.09 16.09,16.09l35.14 0c-25.77,-15.22 -42.31,-38.8 -42.31,-65.27z"/>
    <path class="fil0" d="M34.42 86.36c0,18.86 11.99,35.94 31.38,48.29l53.36 0c8.75,0 15.84,-7.09 15.84,-15.83l0 -100.59c-56.1,2.11 -100.58,31.8 -100.58,68.13z"/>
    <path class="fil3" d="M133.56 129.48c-0.93,1.37 -1.64,3.73 -9.05,7.2l-112.46 0.44c-9.38,0 -17,-7.45 -17,-16.84l0.3 -110c1.01,-7.06 5.26,-10.22 7.51,-11.81l56.9 57.01c8.12,8.13 31.88,32.46 40.94,41.01l32.86 32.99z"/>
   </g>
  </g>
  <path class="fil4" d="M133.88 118.35c0,8.58 -6.96,15.53 -15.54,15.53l-102.81 0c-8.58,0 -15.53,-6.95 -15.53,-15.53l0 -102.81c0,-8.59 6.95,-15.54 15.53,-15.54l102.81 0c8.58,0 15.54,6.95 15.54,15.54l0 102.81z"/>
 </g>
</svg>
